<?xml version="1.0" standalone="no"?>
<!DOCTYPE svg PUBLIC "-//W3C//DTD SVG 20010904//EN"
 "http://www.w3.org/TR/2001/REC-SVG-20010904/DTD/svg10.dtd">
<svg version="1.0" xmlns="http://www.w3.org/2000/svg"
 width="500.000000pt" height="500.000000pt" viewBox="0 0 500.000000 500.000000"
 preserveAspectRatio="xMidYMid meet">
<metadata>
Created by potrace 1.11, written by Peter Selinger 2001-2013
</metadata>
<g transform="translate(0.000000,500.000000) scale(0.100000,-0.100000)"
fill="#000000" stroke="none">
<path d="M2145 4935 c-506 -66 -982 -292 -1339 -636 -198 -190 -394 -464 -527
-734 -71 -145 -149 -345 -149 -381 0 -24 78 -101 145 -143 57 -36 63 -43 69
-83 25 -157 197 -324 371 -361 41 -8 56 -17 65 -35 6 -14 27 -44 46 -68 l36
-43 -7 -78 c-13 -157 -26 -238 -41 -246 -25 -14 -15 -27 21 -27 19 0 35 -4 35
-10 0 -5 -7 -10 -16 -10 -13 0 -15 -9 -10 -58 3 -31 8 -320 12 -641 l6 -585
-39 31 c-21 17 -70 60 -108 95 -39 34 -81 72 -95 83 l-24 20 18 -30 c73 -119
238 -298 375 -408 343 -273 795 -459 1233 -506 125 -14 391 -14 516 0 443 48
889 233 1240 515 395 317 698 794 827 1305 57 223 69 334 69 619 1 229 -2 282
-21 390 -105 594 -398 1102 -858 1488 -338 284 -786 476 -1248 537 -143 18
-459 18 -602 0z m-694 -301 c-44 -41 -72 -78 -101 -136 -22 -44 -40 -87 -40
-94 0 -20 -17 -17 -23 4 -2 9 -16 47 -30 85 l-26 67 42 22 c65 34 221 107 230
108 5 0 -19 -25 -52 -56z m-341 -156 c-4 -29 -88 -243 -97 -245 -11 -4 53 207
72 237 5 8 26 15 25 8z m1825 -21 c141 -3 169 -6 240 -30 140 -46 284 -149
349 -248 16 -24 47 -70 68 -102 22 -32 38 -60 36 -61 -1 -2 -39 -10 -83 -18
-44 -9 -115 -30 -158 -48 -77 -32 -218 -117 -232 -140 -17 -27 9 -19 74 24
136 90 297 150 389 144 l45 -3 47 -92 c85 -164 140 -384 140 -557 0 -226 -75
-466 -201 -638 -27 -38 -44 -68 -39 -68 18 0 206 71 275 105 87 42 156 109
197 193 30 60 34 64 106 97 90 42 225 131 269 177 17 18 47 57 66 86 l35 53
25 -78 c70 -211 96 -371 104 -618 8 -286 -23 -517 -103 -764 l-36 -111 -48 6
-49 6 -15 -52 c-9 -29 -21 -102 -27 -162 -7 -77 -17 -120 -31 -144 -11 -19
-22 -33 -24 -31 -2 2 7 86 21 187 13 102 22 186 21 187 -2 2 -30 -3 -62 -12
-58 -15 -547 -64 -654 -65 -47 -1 -52 -3 -35 -13 48 -29 85 -75 85 -106 0 -65
-54 -121 -117 -121 -46 -1 -45 -8 6 -226 27 -115 65 -271 84 -347 30 -118 33
-139 20 -144 -20 -8 -28 7 -49 89 -10 37 -21 68 -26 68 -4 0 -8 -5 -8 -12 0
-36 -13 17 -41 158 -30 160 -67 294 -80 294 -4 0 -10 -44 -14 -97 -6 -95 -41
-360 -51 -395 -7 -23 -21 -23 -32 0 -11 22 35 787 50 825 6 15 18 27 28 27 30
0 37 21 49 155 14 156 56 447 75 530 8 33 13 61 11 63 -1 2 -38 -24 -81 -56
-220 -165 -422 -242 -649 -247 l-120 -4 105 9 c177 14 339 73 505 181 163 106
348 279 297 279 -4 0 -30 -23 -57 -51 -169 -173 -396 -311 -600 -365 -95 -25
-277 -25 -358 -1 -33 10 -57 23 -55 29 2 6 -23 25 -56 41 -119 60 -258 220
-351 406 -48 96 -110 284 -130 391 -8 47 -20 164 -26 260 -7 96 -16 178 -21
181 -12 8 6 201 28 309 23 113 78 271 131 374 107 207 279 313 493 301 47 -3
157 -6 245 -8z m-1932 -135 l-38 -110 -160 -64 c-88 -34 -164 -64 -170 -66 -5
-2 39 45 99 104 102 99 295 258 304 249 2 -2 -14 -53 -35 -113z m-107 -1944
c-3 -29 -8 -89 -11 -133 -7 -89 -12 -115 -24 -115 -5 0 -5 19 0 43 4 23 11 90
15 150 4 59 11 107 16 107 5 0 7 -23 4 -52z m1448 -273 c-26 -164 -52 -254
-91 -328 -28 -50 -24 -73 6 -41 44 45 89 206 122 432 6 46 15 80 20 75 13 -13
-46 -350 -75 -426 -40 -107 -41 -108 -163 -132 -104 -21 -113 -21 -263 -8 -85
8 -216 23 -290 33 l-135 18 81 1 c154 2 346 73 451 165 28 25 72 77 97 115 25
39 53 74 62 79 27 15 134 125 156 160 17 28 23 31 33 20 11 -11 9 -41 -11
-163z m-1327 -31 c-3 -3 -12 -4 -19 -1 -8 3 -5 6 6 6 11 1 17 -2 13 -5z m247
-291 c28 -14 40 -22 26 -19 -14 3 -49 8 -79 12 -53 7 -54 7 -48 -17 11 -45 36
-234 47 -351 11 -126 33 -849 25 -856 -2 -2 -19 5 -38 17 -34 21 -35 23 -41
104 -3 45 -9 334 -12 642 l-7 560 38 -34 c21 -19 61 -45 89 -58z m83 -29 c-3
-3 -12 -4 -19 -1 -8 3 -5 6 6 6 11 1 17 -2 13 -5z m100 -20 c-3 -3 -12 -4 -19
-1 -8 3 -5 6 6 6 11 1 17 -2 13 -5z m920 -39 c3 -9 0 -189 -7 -401 -6 -212 -9
-388 -6 -392 4 -3 35 0 71 7 35 7 69 10 74 6 25 -15 -12 -44 -95 -74 -76 -27
-90 -30 -102 -17 -12 12 -12 69 2 428 9 227 19 423 22 436 7 25 32 30 41 7z
m462 -21 c19 -16 31 -35 31 -50 0 -33 -25 -30 -40 5 -13 33 -41 45 -64 27 -9
-6 -28 -40 -43 -76 l-28 -65 -3 -293 c-3 -206 0 -302 8 -322 12 -29 47 -50 84
-50 48 0 49 9 40 322 l-9 293 -30 3 c-38 4 -55 20 -35 32 22 14 117 12 127 -2
4 -7 6 -152 4 -322 -2 -236 -6 -317 -17 -342 -14 -33 -16 -34 -75 -34 -91 0
-127 25 -150 103 -10 37 7 657 20 712 20 83 115 114 180 59z m353 -60 c4 -27
21 -96 38 -154 19 -61 41 -177 55 -280 13 -96 31 -206 39 -245 15 -71 10 -95
-19 -95 -19 0 -20 6 -56 256 -17 126 -38 235 -44 242 -16 18 -82 6 -94 -17 -5
-9 -28 -99 -51 -201 -45 -194 -56 -228 -71 -213 -12 12 63 351 162 726 13 51
32 42 41 -19z m-1411 -1 c27 -40 33 -61 40 -133 12 -116 12 -378 0 -415 -30
-97 -81 -174 -133 -201 -55 -28 -60 -18 -52 108 3 62 9 239 13 393 l6 280 27
0 c14 0 30 3 34 8 16 16 34 5 65 -40z m2202 -1 c35 -47 35 -48 47 -207 16
-212 8 -317 -31 -404 -16 -36 -44 -80 -61 -98 -35 -36 -85 -61 -96 -47 -4 5
-5 74 -1 154 4 80 7 254 8 386 1 257 2 260 49 247 11 -2 23 0 26 6 12 19 23
12 59 -37z m-2478 -2 c44 -17 14 -40 -50 -40 -29 0 -67 -3 -84 -6 -33 -7 -37
-20 -25 -81 l6 -29 76 1 c76 0 77 0 77 -25 0 -24 -4 -25 -69 -32 -38 -4 -72
-10 -76 -15 -4 -4 -10 -124 -12 -265 -4 -215 -3 -260 9 -270 8 -6 39 -14 69
-16 48 -4 57 -8 65 -30 16 -43 6 -52 -62 -52 -65 0 -117 18 -135 48 -9 13 -8
69 3 218 9 131 12 261 8 380 -7 212 -9 206 94 215 36 3 69 7 73 7 4 1 19 -3
33 -8z m689 -10 c18 -18 -7 -28 -84 -32 -44 -3 -85 -9 -90 -14 -6 -6 -6 -28
-2 -54 l8 -45 74 0 c73 0 75 -1 75 -25 0 -24 -4 -25 -68 -32 -38 -3 -70 -8
-72 -10 -2 -2 -7 -120 -12 -263 -8 -207 -7 -263 3 -274 7 -8 38 -16 69 -19 47
-4 58 -9 67 -28 21 -46 5 -57 -77 -52 -65 3 -78 7 -102 30 l-26 27 13 228 c7
125 11 297 8 381 -4 114 -2 157 8 170 20 27 182 37 208 12z"/>
<path d="M2366 4017 c-47 -15 -65 -44 -20 -33 108 27 231 13 314 -36 52 -31
119 -98 141 -140 19 -38 39 -50 39 -25 0 24 -56 102 -101 140 -104 90 -259
128 -373 94z"/>
<path d="M2398 3756 c-49 -13 -66 -24 -108 -66 -15 -14 -39 -35 -55 -46 -17
-12 -26 -25 -22 -30 4 -5 16 -3 25 4 44 31 94 52 124 52 27 -1 30 -2 16 -11
-25 -14 -24 -83 2 -123 41 -68 153 -100 212 -62 31 21 58 73 58 114 0 28 3 30
35 29 41 -1 57 11 32 24 -9 6 -17 18 -17 28 0 9 -13 30 -29 45 -53 51 -171 69
-273 42z m55 -23 c-7 -2 -19 -2 -25 0 -7 3 -2 5 12 5 14 0 19 -2 13 -5z m-43
-7 c0 -2 -13 -9 -30 -15 -35 -12 -41 -5 -7 9 25 10 37 12 37 6z m180 -87 c0
-26 -28 -35 -47 -16 -23 22 -10 46 21 40 17 -4 26 -12 26 -24z m-5 -79 c-10
-11 -25 -20 -34 -20 -12 1 -11 3 4 12 11 6 24 18 28 25 5 8 11 12 15 9 3 -3
-3 -15 -13 -26z"/>
<path d="M2846 3646 c-5 -78 -18 -134 -91 -406 -15 -52 -29 -133 -32 -179 l-6
-84 24 7 c13 4 42 12 64 17 62 15 115 41 115 57 0 10 -5 12 -17 7 -48 -21
-120 -44 -137 -45 -17 0 -18 6 -13 68 3 37 17 110 32 162 75 275 85 323 85
401 0 43 -4 79 -9 79 -4 0 -11 -38 -15 -84z"/>
<path d="M3255 3701 c-44 -20 -72 -55 -53 -67 6 -4 15 1 20 10 13 24 56 43
113 49 55 7 52 4 -12 -13 -23 -6 -55 -22 -71 -35 -17 -14 -41 -25 -55 -25 -42
0 -40 -17 3 -24 35 -5 40 -9 40 -34 0 -34 31 -102 56 -123 91 -79 244 -12 244
106 0 19 4 35 8 35 14 0 102 -61 102 -71 0 -5 7 -9 15 -9 24 0 17 16 -22 51
-22 18 -37 40 -35 50 5 27 -72 85 -137 103 -77 21 -166 20 -216 -3z m203 -113
c-2 -17 -10 -23 -28 -23 -18 0 -26 6 -28 23 -3 19 1 22 28 22 27 0 31 -3 28
-22z m7 -85 c-14 -13 -34 -23 -43 -22 -13 0 -12 2 4 9 26 10 53 47 55 75 1 11
4 7 6 -10 4 -23 -1 -35 -22 -52z"/>
<path d="M2381 2897 c-51 -14 -67 -37 -26 -37 14 0 36 5 47 11 32 17 186 13
233 -5 22 -9 29 -14 15 -12 -89 16 -129 17 -200 6 -44 -7 -82 -16 -85 -20 -7
-12 38 -38 71 -42 24 -2 30 -8 35 -38 3 -19 10 -44 16 -55 22 -39 143 -146
190 -167 60 -27 149 -29 219 -5 47 16 211 104 237 128 7 6 45 28 85 51 41 22
71 42 68 45 -3 4 4 11 15 17 37 19 26 31 -31 38 -30 3 -71 11 -90 17 -45 14
-214 14 -279 0 -28 -6 -66 -21 -86 -34 l-35 -24 -26 39 c-42 63 -116 94 -234
97 -53 1 -115 -3 -139 -10z m804 -98 c11 -5 -20 -6 -70 -3 -147 10 -284 -26
-301 -78 -7 -22 -7 -22 -14 -3 -18 48 44 84 159 95 83 7 194 2 226 -11z m-264
-226 c-33 -16 -79 -27 -120 -31 -87 -6 -75 4 25 22 43 8 90 19 104 24 50 21
44 10 -9 -15z"/>
<path d="M3536 1603 c-5 -27 -9 -87 -7 -109 2 -19 60 -25 96 -10 41 17 70 67
56 95 -16 30 -58 51 -100 51 -35 0 -40 -3 -45 -27z"/>
<path d="M3134 1513 c-4 -15 -8 -46 -8 -68 -1 -36 1 -40 27 -43 31 -4 34 11
16 84 -14 54 -26 64 -35 27z"/>
<path d="M1690 1593 c0 -10 5 -65 12 -123 9 -89 9 -123 -5 -220 -24 -166 -32
-296 -19 -304 14 -8 56 53 77 113 18 52 21 257 5 396 -15 125 -16 130 -45 143
-21 10 -25 9 -25 -5z"/>
<path d="M3894 1578 c17 -93 18 -257 2 -361 -9 -59 -16 -146 -16 -194 0 -85 0
-86 20 -68 11 10 32 43 47 74 27 54 28 61 26 211 -2 212 -17 330 -44 353 -32
26 -42 21 -35 -15z"/>
</g>
</svg>
